<svg width="210" height="210" viewBox="0 0 210 210" fill="none" xmlns="http://www.w3.org/2000/svg">
<path d="M105 17.5C88.0292 17.5322 71.434 22.499 57.2358 31.7952C43.0376 41.0915 31.8492 54.316 25.0333 69.858C18.2174 85.4 16.0684 102.589 18.8478 119.33C21.6272 136.072 29.2152 151.644 40.6876 164.15V164.15C48.8813 173.032 58.8258 180.12 69.8945 184.968C80.9632 189.816 92.9162 192.319 105 192.319C117.084 192.319 129.037 189.816 140.106 184.968C151.174 180.12 161.119 173.032 169.313 164.15V164.15C180.785 151.644 188.373 136.072 191.152 119.33C193.932 102.589 191.783 85.4 184.967 69.858C178.151 54.316 166.963 41.0915 152.764 31.7952C138.566 22.499 121.971 17.5322 105 17.5V17.5ZM105 175C86.8741 174.972 69.4656 167.915 56.4376 155.312C60.3929 145.683 67.1216 137.448 75.7685 131.652C84.4155 125.855 94.5903 122.761 105 122.761C115.41 122.761 125.585 125.855 134.232 131.652C142.879 137.448 149.607 145.683 153.563 155.312C140.535 167.915 123.126 174.972 105 175ZM87.5001 87.5C87.5001 84.0388 88.5264 80.6554 90.4493 77.7775C92.3723 74.8997 95.1054 72.6566 98.3031 71.3321C101.501 70.0076 105.019 69.661 108.414 70.3363C111.809 71.0115 114.927 72.6782 117.374 75.1256C119.822 77.5731 121.489 80.6913 122.164 84.0859C122.839 87.4806 122.492 90.9993 121.168 94.197C119.843 97.3947 117.6 100.128 114.723 102.051C111.845 103.974 108.461 105 105 105C100.359 105 95.9076 103.156 92.6257 99.8744C89.3438 96.5925 87.5001 92.1413 87.5001 87.5ZM165.463 140C157.645 126.628 145.612 116.226 131.25 110.425C135.705 105.373 138.608 99.1433 139.61 92.4826C140.613 85.8219 139.672 79.0135 136.9 72.8743C134.129 66.7352 129.645 61.5261 123.987 57.8722C118.328 54.2183 111.736 52.2747 105 52.2747C98.2644 52.2747 91.6718 54.2183 86.0134 57.8722C80.3549 61.5261 75.871 66.7352 73.0997 72.8743C70.3284 79.0135 69.3874 85.8219 70.3897 92.4826C71.3919 99.1433 74.2948 105.373 78.7501 110.425C64.3878 116.226 52.3554 126.628 44.5376 140C38.3071 129.387 35.0151 117.307 35.0001 105C35.0001 86.4348 42.375 68.6301 55.5026 55.5025C68.6301 42.375 86.4349 35 105 35C123.565 35 141.37 42.375 154.498 55.5025C167.625 68.6301 175 86.4348 175 105C174.985 117.307 171.693 129.387 165.463 140V140Z" fill="#1B1B1B"/>
</svg>
