<svg id="Layer_2" data-name="Layer 2" xmlns="http://www.w3.org/2000/svg" viewBox="0 0 650.03 650.06"><defs><style>.cls-1{fill:#616ece;}</style></defs><path d="M725,395.48C722.56,220.16,579.83,77.42,404.53,75,221.75,72.52,72.53,221.73,75,404.52a322.78,322.78,0,0,0,55.25,176.3A328.33,328.33,0,0,0,242.68,684.17,322.4,322.4,0,0,0,395.47,725C578.28,727.48,727.47,578.27,725,395.48ZM636.81,539.7c-.56.95-1.13,1.9-1.71,2.84s-1.11,1.84-1.69,2.75l-.17.28q-1.69,2.7-3.45,5.37c-.61.92-1.22,1.84-1.84,2.75q-2.66,3.93-5.45,7.77a274.92,274.92,0,0,1-442.67,3.14c-1.36-1.8-2.69-3.63-4-5.47-.64-.9-1.28-1.8-1.9-2.7q-2-2.83-3.86-5.7a273.43,273.43,0,0,1-39.38-206.1c.2-.92.39-1.83.59-2.74,23.11-104.93,107.17-188.73,212.66-211l.67-.14A270.74,270.74,0,0,1,399.33,125C551.44,124.61,675,248.12,675,400A273.86,273.86,0,0,1,636.81,539.7Z" transform="translate(-74.97 -74.95)"/><path d="M610.21,411.81a34.9,34.9,0,0,1,25.56,11c6.38,7,9.49,16.51,8.62,26.7-1.77,20.07-17.56,36.23-35.21,36S576.23,468.67,575,448.57a34.41,34.41,0,0,1,9.42-26.4A34.76,34.76,0,0,1,610.21,411.81Z" transform="translate(-74.97 -74.95)"/><path d="M539.48,560.41a110.76,110.76,0,0,0,49.25,12.25c37.67.53,71.37-17.81,92.75-46.58.58-.78,1.14-1.56,1.7-2.35l.81-1.16c.56-.82,1.11-1.63,1.65-2.46-15.95-10-35.63-15.61-55.87-15.9-21.63-.3-42.8,5.51-59.59,16.36a82.54,82.54,0,0,0-21.42,19.77,1.59,1.59,0,0,1-.2.24l-.12.13C548.33,540.8,541.53,551,539.48,560.41Z" transform="translate(-74.97 -74.95)"/><path class="cls-1" d="M467.05,355c21.41,0,40.77,8,54.52,22.61S542.2,412.39,540.65,434c-3.15,42.61-36.17,77.35-73.6,77.35S396.67,476.64,393.46,434c-1.61-21.43,5.21-41.41,19.19-56.26C426.46,363.12,445.78,355,467.05,355Z" transform="translate(-74.97 -74.95)"/><path class="cls-1" d="M312.65,650.37a235.31,235.31,0,0,0,104.82,24.52c79.91,0,150.84-39.9,195.31-101.55q1.8-2.49,3.55-5l1.68-2.48c1.16-1.74,2.31-3.49,3.42-5.25-34.11-20.72-76-32.06-118.95-32.06-45.89,0-90.61,13-125.89,36.46a174.59,174.59,0,0,0-44.84,42.57,5.17,5.17,0,0,1-.42.51l-.25.27C330.85,608.52,316.74,630.36,312.65,650.37Z" transform="translate(-74.97 -74.95)"/><path d="M273.14,242.54c-30.81,0-58.67,11.55-78.46,32.54s-29.69,50-27.46,81.14c4.53,61.32,52.05,111.32,105.92,111.32s101.3-50,105.93-111.31c2.31-30.84-7.5-59.59-27.63-81C331.57,254.17,303.75,242.54,273.14,242.54Z" transform="translate(-74.97 -74.95)"/><path d="M512.26,663.35c-38.83,22.06-82.3,34.39-128.21,34.39-97.73,0-184.49-56-238.88-142.43-1.47-2.32-2.91-4.69-4.34-7.06l-2.06-3.49c-1.42-2.44-2.82-4.89-4.18-7.36,41.72-29.06,93-45,145.5-45,56.12,0,110.81,18.17,154,51.14a229.83,229.83,0,0,1,54.84,59.7c.17.26.33.49.51.73s.32.37.32.37C490,604.65,507.26,635.29,512.26,663.35Z" transform="translate(-74.97 -74.95)"/><path d="M102.12,602.23a5.28,5.28,0,0,1,1.11.94L103,603A3.49,3.49,0,0,1,102.12,602.23Z" transform="translate(-74.97 -74.95)"/></svg>