<svg id="Layer_3" data-name="Layer 3" xmlns="http://www.w3.org/2000/svg" viewBox="0 0 650.03 650.06"><defs><style>.cls-1{fill:#616ece;}</style></defs><path class="cls-1" d="M207.85,370.47c-16,0-30.53,6-40.83,16.93s-15.45,26-14.29,42.23c2.36,31.91,27.08,57.94,55.12,57.94s52.72-26,55.13-57.93c1.2-16.06-3.91-31-14.38-42.14S223.78,370.47,207.85,370.47Z" transform="translate(-74.99 -75.11)"/><path class="cls-1" d="M350.26,590.92a176.27,176.27,0,0,1-78.51,18.37c-59.85,0-113-29.89-146.29-76.07-.9-1.24-1.78-2.5-2.66-3.77-.42-.62-.85-1.24-1.26-1.86q-1.31-2-2.56-3.93c25.55-15.52,56.94-24,89.1-24,34.37,0,67.86,9.71,94.29,27.31A131,131,0,0,1,336,558.84c.1.13.2.26.31.38l.19.2C336.63,559.57,347.2,575.93,350.26,590.92Z" transform="translate(-74.99 -75.11)"/><path class="cls-1" d="M596,387.42c15.37,0,29.27,5.76,39.14,16.22s14.81,24.94,13.7,40.47c-2.26,30.59-26,55.53-52.84,55.53s-50.52-24.94-52.83-55.52c-1.15-15.38,3.74-29.72,13.78-40.38S580.7,387.42,596,387.42Z" transform="translate(-74.99 -75.11)"/><path class="cls-1" d="M459.48,597.21a168.93,168.93,0,0,0,75.25,17.61c57.35,0,108.28-28.64,140.2-72.9q1.29-1.78,2.54-3.62c.41-.59.82-1.19,1.21-1.78q1.26-1.87,2.46-3.77c-24.49-14.87-54.57-23-85.39-23-32.94,0-65,9.3-90.37,26.18a125.32,125.32,0,0,0-32.19,30.56c-.1.13-.19.25-.3.37s-.19.19-.19.19S462.41,582.85,459.48,597.21Z" transform="translate(-74.99 -75.11)"/><path d="M400,244.3c-30.82,0-58.68,11.55-78.47,32.53s-29.69,50-27.46,81.15C298.62,419.3,346.14,469.3,400,469.3S501.31,419.3,505.94,358c2.31-30.84-7.5-59.59-27.63-81C458.44,255.93,430.62,244.3,400,244.3Z" transform="translate(-74.99 -75.11)"/><path d="M404.55,75.14C221.77,72.67,72.55,221.89,75,404.67,77.45,580,220.19,722.7,395.48,725.14c182.82,2.5,332-146.72,329.5-329.5C722.58,220.31,579.84,77.57,404.55,75.14ZM602.08,586.46a6.27,6.27,0,0,1-9.6-.5,194.15,194.15,0,0,0-50.54-46.23C502.16,514.2,451.75,500.14,400,500.14S297.87,514.2,258.09,539.73A194.11,194.11,0,0,0,207.55,586a6.25,6.25,0,0,1-8.75,1.26,6.15,6.15,0,0,1-.85-.76A273.91,273.91,0,0,1,125,404.82c-2.55-152,122.21-279.31,274.32-279.68S675,248.28,675,400.14A273.93,273.93,0,0,1,602.08,586.46Z" transform="translate(-74.99 -75.11)"/></svg>